mono_size_09_07_design_1.ufo
<glyph name="33" format="2">
  <advance width="768" />
  <unicode hex="0021" />
  <outline>
    <contour>
      <point x="256.0" y="0.0" type="line" />
      <point x="256.0" y="128.0" type="line" />
      <point x="384.0" y="128.0" type="line" />
      <point x="384.0" y="0.0" type="line" />
    </contour>
    <contour>
      <point x="256.0" y="256.0" type="line" />
      <point x="256.0" y="1152.0" type="line" />
      <point x="384.0" y="1152.0" type="line" />
      <point x="384.0" y="256.0" type="line" />
    </contour>
  </outline>
</glyph>
<glyph name="34" format="2">
  <advance width="768" />
  <unicode hex="0022" />
  <outline>
    <contour>
      <point x="128.0" y="768.0" type="line" />
      <point x="128.0" y="1152.0" type="line" />
      <point x="256.0" y="1152.0" type="line" />
      <point x="256.0" y="768.0" type="line" />
    </contour>
    <contour>
      <point x="384.0" y="768.0" type="line" />
      <point x="384.0" y="1152.0" type="line" />
      <point x="512.0" y="1152.0" type="line" />
      <point x="512.0" y="768.0" type="line" />
    </contour>
  </outline>
</glyph>
<glyph name="37" format="2">
  <advance width="768" />
  <unicode hex="0025" />
  <outline>
    <contour>
      <point x="0.0" y="347.0" type="line" />
      <point x="91.0" y="256.0" type="line" />
      <point x="640.0" y="805.0" type="line" />
      <point x="549.0" y="896.0" type="line" />
    </contour>
    <contour>
      <point x="0.0" y="805.0" type="line" />
      <point x="0.0" y="859.0" type="line" />
      <point x="37.0" y="896.0" type="line" />
      <point x="91.0" y="896.0" type="line" />
      <point x="128.0" y="859.0" type="line" />
      <point x="128.0" y="805.0" type="line" />
      <point x="91.0" y="768.0" type="line" />
      <point x="37.0" y="768.0" type="line" />
    </contour>
    <contour>
      <point x="512.0" y="293.0" type="line" />
      <point x="512.0" y="347.0" type="line" />
      <point x="549.0" y="384.0" type="line" />
      <point x="603.0" y="384.0" type="line" />
      <point x="640.0" y="347.0" type="line" />
      <point x="640.0" y="293.0" type="line" />
      <point x="603.0" y="256.0" type="line" />
      <point x="549.0" y="256.0" type="line" />
    </contour>
  </outline>
</glyph>
<glyph name="38" format="2">
  <advance width="768" />
  <unicode hex="0026" />
  <outline>
    <contour>
      <point x="0.0" y="165.0" type="line" />
      <point x="0.0" y="475.0" type="line" />
      <point x="101.0" y="576.0" type="line" />
      <point x="0.0" y="677.0" type="line" />
      <point x="0.0" y="987.0" type="line" />
      <point x="165.0" y="1152.0" type="line" />
      <point x="347.0" y="1152.0" type="line" />
      <point x="512.0" y="987.0" type="line" />
      <point x="512.0" y="768.0" type="line" />
      <point x="384.0" y="768.0" type="line" />
      <point x="384.0" y="933.0" type="line" />
      <point x="293.0" y="1024.0" type="line" />
      <point x="219.0" y="1024.0" type="line" />
      <point x="128.0" y="933.0" type="line" />
      <point x="128.0" y="731.0" type="line" />
      <point x="283.0" y="576.0" type="line" />
      <point x="128.0" y="421.0" type="line" />
      <point x="128.0" y="219.0" type="line" />
      <point x="219.0" y="128.0" type="line" />
      <point x="293.0" y="128.0" type="line" />
      <point x="357.0" y="192.0" type="line" />
      <point x="256.0" y="293.0" type="line" />
      <point x="347.0" y="384.0" type="line" />
      <point x="448.0" y="283.0" type="line" />
      <point x="549.0" y="384.0" type="line" />
      <point x="640.0" y="293.0" type="line" />
      <point x="539.0" y="192.0" type="line" />
      <point x="640.0" y="91.0" type="line" />
      <point x="549.0" y="0.0" type="line" />
      <point x="448.0" y="101.0" type="line" />
      <point x="347.0" y="0.0" type="line" />
      <point x="165.0" y="0.0" type="line" />
    </contour>
  </outline>
</glyph>
<glyph name="char39" format="2">
  <advance width="768" />
  <unicode hex="0027" />
  <outline>
    <contour>
      <point x="256.0" y="768.0" type="line" />
      <point x="256.0" y="1152.0" type="line" />
      <point x="384.0" y="1152.0" type="line" />
      <point x="384.0" y="768.0" type="line" />
    </contour>
  </outline>
</glyph>
<glyph name="40" format="2">
  <advance width="768" />
  <unicode hex="0028" />
  <outline>
    <contour>
      <point x="128.0" y="37.0" type="line" />
      <point x="128.0" y="859.0" type="line" />
      <point x="421.0" y="1152.0" type="line" />
      <point x="512.0" y="1061.0" type="line" />
      <point x="256.0" y="805.0" type="line" />
      <point x="256.0" y="91.0" type="line" />
      <point x="512.0" y="-165.0" type="line" />
      <point x="421.0" y="-256.0" type="line" />
    </contour>
  </outline>
</glyph>
<glyph name="44" format="2">
  <advance width="768" />
  <unicode hex="002C" />
  <outline>
    <contour>
      <point x="128.0" y="-165.0" type="line" />
      <point x="421.0" y="128.0" type="line" />
      <point x="512.0" y="37.0" type="line" />
      <point x="219.0" y="-256.0" type="line" />
    </contour>
  </outline>
</glyph>
<glyph name="45" format="2">
  <advance width="768" />
  <unicode hex="002D" />
  <outline>
    <contour>
      <point x="0.0" y="512.0" type="line" />
      <point x="0.0" y="640.0" type="line" />
      <point x="640.0" y="640.0" type="line" />
      <point x="640.0" y="512.0" type="line" />
    </contour>
  </outline>
</glyph>
<glyph name="char51" format="2">
  <advance width="768" />
  <unicode hex="0033" />
  <outline>
    <contour>
      <point x="0.0" y="165.0" type="line" />
      <point x="91.0" y="256.0" type="line" />
      <point x="219.0" y="128.0" type="line" />
      <point x="421.0" y="128.0" type="line" />
      <point x="512.0" y="219.0" type="line" />
      <point x="512.0" y="421.0" type="line" />
      <point x="421.0" y="512.0" type="line" />
      <point x="256.0" y="512.0" type="line" />
      <point x="256.0" y="640.0" type="line" />
      <point x="421.0" y="640.0" type="line" />
      <point x="512.0" y="731.0" type="line" />
      <point x="512.0" y="933.0" type="line" />
      <point x="421.0" y="1024.0" type="line" />
      <point x="219.0" y="1024.0" type="line" />
      <point x="91.0" y="896.0" type="line" />
      <point x="0.0" y="987.0" type="line" />
      <point x="165.0" y="1152.0" type="line" />
      <point x="475.0" y="1152.0" type="line" />
      <point x="640.0" y="987.0" type="line" />
      <point x="640.0" y="677.0" type="line" />
      <point x="539.0" y="576.0" type="line" />
      <point x="640.0" y="475.0" type="line" />
      <point x="640.0" y="165.0" type="line" />
      <point x="475.0" y="0.0" type="line" />
      <point x="165.0" y="0.0" type="line" />
    </contour>
  </outline>
</glyph>
<glyph name="char59" format="2">
  <advance width="768" />
  <unicode hex="003B" />
  <outline>
    <contour>
      <point x="128.0" y="91.0" type="line" />
      <point x="421.0" y="384.0" type="line" />
      <point x="512.0" y="293.0" type="line" />
      <point x="219.0" y="0.0" type="line" />
    </contour>
    <contour>
      <point x="384.0" y="768.0" type="line" />
      <point x="384.0" y="896.0" type="line" />
      <point x="512.0" y="896.0" type="line" />
      <point x="512.0" y="768.0" type="line" />
    </contour>
  </outline>
</glyph>
<glyph name="char61" format="2">
  <advance width="768" />
  <unicode hex="003D" />
  <outline>
    <contour>
      <point x="0.0" y="384.0" type="line" />
      <point x="0.0" y="512.0" type="line" />
      <point x="640.0" y="512.0" type="line" />
      <point x="640.0" y="384.0" type="line" />
    </contour>
    <contour>
      <point x="0.0" y="640.0" type="line" />
      <point x="0.0" y="768.0" type="line" />
      <point x="640.0" y="768.0" type="line" />
      <point x="640.0" y="640.0" type="line" />
    </contour>
  </outline>
</glyph>
<glyph name="char62" format="2">
  <advance width="768" />
  <unicode hex="003E" />
  <outline>
    <contour>
      <point x="128.0" y="347.0" type="line" />
      <point x="219.0" y="256.0" type="line" />
      <point x="539.0" y="576.0" type="line" />
      <point x="219.0" y="896.0" type="line" />
      <point x="128.0" y="805.0" type="line" />
      <point x="357.0" y="576.0" type="line" />
    </contour>
  </outline>
</glyph>
<glyph name="65" format="2">
  <advance width="768" />
  <unicode hex="0041" />
  <outline>
    <contour>
      <point x="0.0" y="0.0" type="line" />
      <point x="0.0" y="987.0" type="line" />
      <point x="165.0" y="1152.0" type="line" />
      <point x="475.0" y="1152.0" type="line" />
      <point x="640.0" y="987.0" type="line" />
      <point x="640.0" y="0.0" type="line" />
      <point x="512.0" y="0.0" type="line" />
      <point x="512.0" y="512.0" type="line" />
      <point x="128.0" y="512.0" type="line" />
      <point x="128.0" y="0.0" type="line" />
    </contour>
    <contour>
      <point x="128.0" y="640.0" type="line" />
      <point x="512.0" y="640.0" type="line" />
      <point x="512.0" y="933.0" type="line" />
      <point x="421.0" y="1024.0" type="line" />
      <point x="219.0" y="1024.0" type="line" />
      <point x="128.0" y="933.0" type="line" />
    </contour>
  </outline>
</glyph>
<glyph name="char72" format="2">
  <advance width="768" />
  <unicode hex="0048" />
  <outline>
    <contour>
      <point x="0.0" y="0.0" type="line" />
      <point x="0.0" y="1152.0" type="line" />
      <point x="128.0" y="1152.0" type="line" />
      <point x="128.0" y="640.0" type="line" />
      <point x="512.0" y="640.0" type="line" />
      <point x="512.0" y="1152.0" type="line" />
      <point x="640.0" y="1152.0" type="line" />
      <point x="640.0" y="0.0" type="line" />
      <point x="512.0" y="0.0" type="line" />
      <point x="512.0" y="512.0" type="line" />
      <point x="128.0" y="512.0" type="line" />
      <point x="128.0" y="0.0" type="line" />
    </contour>
  </outline>
</glyph>
<glyph name="char73" format="2">
  <advance width="768" />
  <unicode hex="0049" />
  <outline>
    <contour>
      <point x="0.0" y="0.0" type="line" />
      <point x="0.0" y="128.0" type="line" />
      <point x="256.0" y="128.0" type="line" />
      <point x="256.0" y="1024.0" type="line" />
      <point x="0.0" y="1024.0" type="line" />
      <point x="0.0" y="1152.0" type="line" />
      <point x="640.0" y="1152.0" type="line" />
      <point x="640.0" y="1024.0" type="line" />
      <point x="384.0" y="1024.0" type="line" />
      <point x="384.0" y="128.0" type="line" />
      <point x="640.0" y="128.0" type="line" />
      <point x="640.0" y="0.0" type="line" />
    </contour>
  </outline>
</glyph>
<glyph name="char75" format="2">
  <advance width="768" />
  <unicode hex="004B" />
  <outline>
    <contour>
      <point x="0.0" y="0.0" type="line" />
      <point x="0.0" y="1152.0" type="line" />
      <point x="128.0" y="1152.0" type="line" />
      <point x="128.0" y="731.0" type="line" />
      <point x="549.0" y="1152.0" type="line" />
      <point x="640.0" y="1061.0" type="line" />
      <point x="155.0" y="576.0" type="line" />
      <point x="640.0" y="91.0" type="line" />
      <point x="549.0" y="0.0" type="line" />
      <point x="128.0" y="421.0" type="line" />
      <point x="128.0" y="0.0" type="line" />
    </contour>
  </outline>
</glyph>
<glyph name="char77" format="2">
  <advance width="768" />
  <unicode hex="004D" />
  <outline>
    <contour>
      <point x="0.0" y="0.0" type="line" />
      <point x="0.0" y="1152.0" type="line" />
      <point x="91.0" y="1152.0" type="line" />
      <point x="320.0" y="923.0" type="line" />
      <point x="549.0" y="1152.0" type="line" />
      <point x="640.0" y="1152.0" type="line" />
      <point x="640.0" y="0.0" type="line" />
      <point x="512.0" y="0.0" type="line" />
      <point x="512.0" y="933.0" type="line" />
      <point x="320.0" y="741.0" type="line" />
      <point x="128.0" y="933.0" type="line" />
      <point x="128.0" y="0.0" type="line" />
    </contour>
  </outline>
</glyph>
<glyph name="78" format="2">
  <advance width="768" />
  <unicode hex="004E" />
  <outline>
    <contour>
      <point x="0.0" y="0.0" type="line" />
      <point x="0.0" y="1152.0" type="line" />
      <point x="91.0" y="1152.0" type="line" />
      <point x="512.0" y="731.0" type="line" />
      <point x="512.0" y="1152.0" type="line" />
      <point x="640.0" y="1152.0" type="line" />
      <point x="640.0" y="0.0" type="line" />
      <point x="512.0" y="0.0" type="line" />
      <point x="512.0" y="549.0" type="line" />
      <point x="128.0" y="933.0" type="line" />
      <point x="128.0" y="0.0" type="line" />
    </contour>
  </outline>
</glyph>
<glyph name="char88" format="2">
  <advance width="768" />
  <unicode hex="0058" />
  <outline>
    <contour>
      <point x="0.0" y="0.0" type="line" />
      <point x="0.0" y="347.0" type="line" />
      <point x="229.0" y="576.0" type="line" />
      <point x="0.0" y="805.0" type="line" />
      <point x="0.0" y="1152.0" type="line" />
      <point x="128.0" y="1152.0" type="line" />
      <point x="128.0" y="859.0" type="line" />
      <point x="320.0" y="667.0" type="line" />
      <point x="512.0" y="859.0" type="line" />
      <point x="512.0" y="1152.0" type="line" />
      <point x="640.0" y="1152.0" type="line" />
      <point x="640.0" y="805.0" type="line" />
      <point x="411.0" y="576.0" type="line" />
      <point x="640.0" y="347.0" type="line" />
      <point x="640.0" y="0.0" type="line" />
      <point x="512.0" y="0.0" type="line" />
      <point x="512.0" y="293.0" type="line" />
      <point x="320.0" y="485.0" type="line" />
      <point x="128.0" y="293.0" type="line" />
      <point x="128.0" y="0.0" type="line" />
    </contour>
  </outline>
</glyph>
<glyph name="char89" format="2">
  <advance width="768" />
  <unicode hex="0059" />
  <outline>
    <contour>
      <point x="0.0" y="805.0" type="line" />
      <point x="0.0" y="1152.0" type="line" />
      <point x="128.0" y="1152.0" type="line" />
      <point x="128.0" y="859.0" type="line" />
      <point x="320.0" y="667.0" type="line" />
      <point x="512.0" y="859.0" type="line" />
      <point x="512.0" y="1152.0" type="line" />
      <point x="640.0" y="1152.0" type="line" />
      <point x="640.0" y="805.0" type="line" />
      <point x="384.0" y="549.0" type="line" />
      <point x="384.0" y="0.0" type="line" />
      <point x="256.0" y="0.0" type="line" />
      <point x="256.0" y="549.0" type="line" />
    </contour>
  </outline>
</glyph>
<glyph name="93" format="2">
  <advance width="768" />
  <unicode hex="005D" />
  <outline>
    <contour>
      <point x="128.0" y="-128.0" type="line" />
      <point x="384.0" y="-128.0" type="line" />
      <point x="384.0" y="1024.0" type="line" />
      <point x="128.0" y="1024.0" type="line" />
      <point x="128.0" y="1152.0" type="line" />
      <point x="512.0" y="1152.0" type="line" />
      <point x="512.0" y="-256.0" type="line" />
      <point x="128.0" y="-256.0" type="line" />
    </contour>
  </outline>
</glyph>
<glyph name="94" format="2">
  <advance width="768" />
  <unicode hex="005E" />
  <outline>
    <contour>
      <point x="0.0" y="859.0" type="line" />
      <point x="320.0" y="1179.0" type="line" />
      <point x="640.0" y="859.0" type="line" />
      <point x="549.0" y="768.0" type="line" />
      <point x="320.0" y="997.0" type="line" />
      <point x="91.0" y="768.0" type="line" />
    </contour>
  </outline>
</glyph>
<glyph name="char96" format="2">
  <advance width="768" />
  <unicode hex="0060" />
  <outline>
    <contour>
      <point x="128.0" y="1061.0" type="line" />
      <point x="219.0" y="1152.0" type="line" />
      <point x="512.0" y="859.0" type="line" />
      <point x="421.0" y="768.0" type="line" />
    </contour>
  </outline>
</glyph>
<glyph name="char105" format="2">
  <advance width="768" />
  <unicode hex="0069" />
  <outline>
    <contour>
      <point x="0.0" y="0.0" type="line" />
      <point x="0.0" y="128.0" type="line" />
      <point x="256.0" y="128.0" type="line" />
      <point x="256.0" y="768.0" type="line" />
      <point x="0.0" y="768.0" type="line" />
      <point x="0.0" y="896.0" type="line" />
      <point x="384.0" y="896.0" type="line" />
      <point x="384.0" y="128.0" type="line" />
      <point x="640.0" y="128.0" type="line" />
      <point x="640.0" y="0.0" type="line" />
    </contour>
    <contour>
      <point x="256.0" y="1024.0" type="line" />
      <point x="256.0" y="1152.0" type="line" />
      <point x="384.0" y="1152.0" type="line" />
      <point x="384.0" y="1024.0" type="line" />
    </contour>
  </outline>
</glyph>
<glyph name="char109" format="2">
  <advance width="768" />
  <unicode hex="006D" />
  <outline>
    <contour>
      <point x="0.0" y="0.0" type="line" />
      <point x="0.0" y="731.0" type="line" />
      <point x="165.0" y="896.0" type="line" />
      <point x="219.0" y="896.0" type="line" />
      <point x="320.0" y="795.0" type="line" />
      <point x="421.0" y="896.0" type="line" />
      <point x="475.0" y="896.0" type="line" />
      <point x="640.0" y="731.0" type="line" />
      <point x="640.0" y="0.0" type="line" />
      <point x="512.0" y="0.0" type="line" />
      <point x="512.0" y="677.0" type="line" />
      <point x="448.0" y="741.0" type="line" />
      <point x="384.0" y="677.0" type="line" />
      <point x="384.0" y="0.0" type="line" />
      <point x="256.0" y="0.0" type="line" />
      <point x="256.0" y="677.0" type="line" />
      <point x="192.0" y="741.0" type="line" />
      <point x="128.0" y="677.0" type="line" />
      <point x="128.0" y="0.0" type="line" />
    </contour>
  </outline>
</glyph>
<glyph name="char110" format="2">
  <advance width="768" />
  <unicode hex="006E" />
  <outline>
    <contour>
      <point x="0.0" y="0.0" type="line" />
      <point x="0.0" y="896.0" type="line" />
      <point x="475.0" y="896.0" type="line" />
      <point x="640.0" y="731.0" type="line" />
      <point x="640.0" y="0.0" type="line" />
      <point x="512.0" y="0.0" type="line" />
      <point x="512.0" y="677.0" type="line" />
      <point x="421.0" y="768.0" type="line" />
      <point x="128.0" y="768.0" type="line" />
      <point x="128.0" y="0.0" type="line" />
    </contour>
  </outline>
</glyph>
<glyph name="118" format="2">
  <advance width="768" />
  <unicode hex="0076" />
  <outline>
    <contour>
      <point x="0.0" y="293.0" type="line" />
      <point x="0.0" y="896.0" type="line" />
      <point x="128.0" y="896.0" type="line" />
      <point x="128.0" y="347.0" type="line" />
      <point x="320.0" y="155.0" type="line" />
      <point x="512.0" y="347.0" type="line" />
      <point x="512.0" y="896.0" type="line" />
      <point x="640.0" y="896.0" type="line" />
      <point x="640.0" y="293.0" type="line" />
      <point x="347.0" y="0.0" type="line" />
      <point x="293.0" y="0.0" type="line" />
    </contour>
  </outline>
</glyph>
<glyph name="123" format="2">
  <advance width="768" />
  <unicode hex="007B" />
  <outline>
    <contour>
      <point x="128.0" y="421.0" type="line" />
      <point x="128.0" y="475.0" type="line" />
      <point x="256.0" y="603.0" type="line" />
      <point x="256.0" y="987.0" type="line" />
      <point x="421.0" y="1152.0" type="line" />
      <point x="512.0" y="1061.0" type="line" />
      <point x="384.0" y="933.0" type="line" />
      <point x="384.0" y="549.0" type="line" />
      <point x="283.0" y="448.0" type="line" />
      <point x="384.0" y="347.0" type="line" />
      <point x="384.0" y="-37.0" type="line" />
      <point x="512.0" y="-165.0" type="line" />
      <point x="421.0" y="-256.0" type="line" />
      <point x="256.0" y="-91.0" type="line" />
      <point x="256.0" y="293.0" type="line" />
    </contour>
  </outline>
</glyph>
<glyph name="char125" format="2">
  <advance width="768" />
  <unicode hex="007D" />
  <outline>
    <contour>
      <point x="128.0" y="-165.0" type="line" />
      <point x="219.0" y="-256.0" type="line" />
      <point x="384.0" y="-91.0" type="line" />
      <point x="384.0" y="293.0" type="line" />
      <point x="512.0" y="421.0" type="line" />
      <point x="512.0" y="475.0" type="line" />
      <point x="384.0" y="603.0" type="line" />
      <point x="384.0" y="987.0" type="line" />
      <point x="219.0" y="1152.0" type="line" />
      <point x="128.0" y="1061.0" type="line" />
      <point x="256.0" y="933.0" type="line" />
      <point x="256.0" y="549.0" type="line" />
      <point x="357.0" y="448.0" type="line" />
      <point x="256.0" y="347.0" type="line" />
      <point x="256.0" y="-37.0" type="line" />
    </contour>
  </outline>
</glyph>
<glyph name="char126" format="2">
  <advance width="768" />
  <unicode hex="007E" />
  <outline>
    <contour>
      <point x="0.0" y="987.0" type="line" />
      <point x="192.0" y="1179.0" type="line" />
      <point x="448.0" y="923.0" type="line" />
      <point x="549.0" y="1024.0" type="line" />
      <point x="640.0" y="933.0" type="line" />
      <point x="448.0" y="741.0" type="line" />
      <point x="192.0" y="997.0" type="line" />
      <point x="91.0" y="896.0" type="line" />
    </contour>
  </outline>
</glyph>
<glyph name="215" format="2">
  <advance width="768" />
  <unicode hex="00D7" />
  <outline>
    <contour>
      <point x="0.0" y="347.0" type="line" />
      <point x="229.0" y="576.0" type="line" />
      <point x="0.0" y="805.0" type="line" />
      <point x="91.0" y="896.0" type="line" />
      <point x="320.0" y="667.0" type="line" />
      <point x="549.0" y="896.0" type="line" />
      <point x="640.0" y="805.0" type="line" />
      <point x="411.0" y="576.0" type="line" />
      <point x="640.0" y="347.0" type="line" />
      <point x="549.0" y="256.0" type="line" />
      <point x="320.0" y="485.0" type="line" />
      <point x="91.0" y="256.0" type="line" />
    </contour>
  </outline>
</glyph>
<glyph name="916" format="2">
  <advance width="1536" />
  <unicode hex="0394" />
  <outline>
    <contour>
      <point x="128.0" y="0.0" type="line" />
      <point x="1280.0" y="0.0" type="line" />
      <point x="704.0" y="1152.0" type="line" />
    </contour>
    <contour>
      <point x="337.0" y="128.0" type="line" />
      <point x="704.0" y="862.0" type="line" />
      <point x="1071.0" y="128.0" type="line" />
    </contour>
  </outline>
</glyph>
<glyph name="923" format="2">
  <advance width="1536" />
  <unicode hex="039B" />
  <outline>
    <contour>
      <point x="128.0" y="0.0" type="line" />
      <point x="273.0" y="0.0" type="line" />
      <point x="704.0" y="862.0" type="line" />
      <point x="1135.0" y="0.0" type="line" />
      <point x="1280.0" y="0.0" type="line" />
      <point x="704.0" y="1152.0" type="line" />
    </contour>
  </outline>
</glyph>
<glyph name="alpha" format="2">
  <advance width="768" />
  <unicode hex="03B1" />
  <outline>
    <contour>
      <point x="0.0" y="165.0" type="line" />
      <point x="0.0" y="731.0" type="line" />
      <point x="165.0" y="896.0" type="line" />
      <point x="347.0" y="896.0" type="line" />
      <point x="448.0" y="795.0" type="line" />
      <point x="549.0" y="896.0" type="line" />
      <point x="640.0" y="805.0" type="line" />
      <point x="512.0" y="677.0" type="line" />
      <point x="512.0" y="219.0" type="line" />
      <point x="640.0" y="91.0" type="line" />
      <point x="549.0" y="0.0" type="line" />
      <point x="448.0" y="101.0" type="line" />
      <point x="347.0" y="0.0" type="line" />
      <point x="165.0" y="0.0" type="line" />
    </contour>
    <contour>
      <point x="128.0" y="219.0" type="line" />
      <point x="219.0" y="128.0" type="line" />
      <point x="293.0" y="128.0" type="line" />
      <point x="384.0" y="219.0" type="line" />
      <point x="384.0" y="677.0" type="line" />
      <point x="293.0" y="768.0" type="line" />
      <point x="219.0" y="768.0" type="line" />
      <point x="128.0" y="677.0" type="line" />
    </contour>
  </outline>
</glyph>
<glyph name="946" format="2">
  <advance width="768" />
  <unicode hex="03B2" />
  <outline>
    <contour>
      <point x="0.0" y="-256.0" type="line" />
      <point x="0.0" y="1152.0" type="line" />
      <point x="475.0" y="1152.0" type="line" />
      <point x="640.0" y="987.0" type="line" />
      <point x="640.0" y="805.0" type="line" />
      <point x="539.0" y="704.0" type="line" />
      <point x="640.0" y="603.0" type="line" />
      <point x="640.0" y="165.0" type="line" />
      <point x="475.0" y="0.0" type="line" />
      <point x="128.0" y="0.0" type="line" />
      <point x="128.0" y="-256.0" type="line" />
    </contour>
    <contour>
      <point x="128.0" y="128.0" type="line" />
      <point x="421.0" y="128.0" type="line" />
      <point x="512.0" y="219.0" type="line" />
      <point x="512.0" y="549.0" type="line" />
      <point x="421.0" y="640.0" type="line" />
      <point x="128.0" y="640.0" type="line" />
    </contour>
    <contour>
      <point x="128.0" y="768.0" type="line" />
      <point x="421.0" y="768.0" type="line" />
      <point x="512.0" y="859.0" type="line" />
      <point x="512.0" y="933.0" type="line" />
      <point x="421.0" y="1024.0" type="line" />
      <point x="128.0" y="1024.0" type="line" />
    </contour>
  </outline>
</glyph>
<glyph name="gamma" format="2">
  <advance width="768" />
  <unicode hex="03B3" />
  <outline>
    <contour>
      <point x="0.0" y="-165.0" type="line" />
      <point x="357.0" y="192.0" type="line" />
      <point x="0.0" y="549.0" type="line" />
      <point x="0.0" y="896.0" type="line" />
      <point x="128.0" y="896.0" type="line" />
      <point x="128.0" y="603.0" type="line" />
      <point x="448.0" y="283.0" type="line" />
      <point x="512.0" y="347.0" type="line" />
      <point x="512.0" y="896.0" type="line" />
      <point x="640.0" y="896.0" type="line" />
      <point x="640.0" y="293.0" type="line" />
      <point x="91.0" y="-256.0" type="line" />
    </contour>
  </outline>
</glyph>
<glyph name="delta" format="2">
  <advance width="768" />
  <unicode hex="03B4" />
  <outline>
    <contour>
      <point x="0.0" y="165.0" type="line" />
      <point x="0.0" y="731.0" type="line" />
      <point x="101.0" y="832.0" type="line" />
      <point x="0.0" y="933.0" type="line" />
      <point x="0.0" y="987.0" type="line" />
      <point x="165.0" y="1152.0" type="line" />
      <point x="640.0" y="1152.0" type="line" />
      <point x="640.0" y="1024.0" type="line" />
      <point x="219.0" y="1024.0" type="line" />
      <point x="155.0" y="960.0" type="line" />
      <point x="219.0" y="896.0" type="line" />
      <point x="475.0" y="896.0" type="line" />
      <point x="640.0" y="731.0" type="line" />
      <point x="640.0" y="165.0" type="line" />
      <point x="475.0" y="0.0" type="line" />
      <point x="165.0" y="0.0" type="line" />
    </contour>
    <contour>
      <point x="128.0" y="219.0" type="line" />
      <point x="219.0" y="128.0" type="line" />
      <point x="421.0" y="128.0" type="line" />
      <point x="512.0" y="219.0" type="line" />
      <point x="512.0" y="677.0" type="line" />
      <point x="421.0" y="768.0" type="line" />
      <point x="219.0" y="768.0" type="line" />
      <point x="128.0" y="677.0" type="line" />
    </contour>
  </outline>
</glyph>
<glyph name="949" format="2">
  <advance width="768" />
  <unicode hex="03B5" />
  <outline>
    <contour>
      <point x="0.0" y="165.0" type="line" />
      <point x="0.0" y="347.0" type="line" />
      <point x="101.0" y="448.0" type="line" />
      <point x="0.0" y="549.0" type="line" />
      <point x="0.0" y="731.0" type="line" />
      <point x="165.0" y="896.0" type="line" />
      <point x="640.0" y="896.0" type="line" />
      <point x="640.0" y="768.0" type="line" />
      <point x="219.0" y="768.0" type="line" />
      <point x="128.0" y="677.0" type="line" />
      <point x="128.0" y="603.0" type="line" />
      <point x="219.0" y="512.0" type="line" />
      <point x="512.0" y="512.0" type="line" />
      <point x="512.0" y="384.0" type="line" />
      <point x="219.0" y="384.0" type="line" />
      <point x="128.0" y="293.0" type="line" />
      <point x="128.0" y="219.0" type="line" />
      <point x="219.0" y="128.0" type="line" />
      <point x="640.0" y="128.0" type="line" />
      <point x="640.0" y="0.0" type="line" />
      <point x="165.0" y="0.0" type="line" />
    </contour>
  </outline>
</glyph>
<glyph name="955" format="2">
  <advance width="768" />
  <unicode hex="03BB" />
  <outline>
    <contour>
      <point x="0.0" y="0.0" type="line" />
      <point x="0.0" y="347.0" type="line" />
      <point x="229.0" y="576.0" type="line" />
      <point x="0.0" y="805.0" type="line" />
      <point x="0.0" y="1152.0" type="line" />
      <point x="128.0" y="1152.0" type="line" />
      <point x="128.0" y="859.0" type="line" />
      <point x="640.0" y="347.0" type="line" />
      <point x="640.0" y="0.0" type="line" />
      <point x="512.0" y="0.0" type="line" />
      <point x="512.0" y="293.0" type="line" />
      <point x="320.0" y="485.0" type="line" />
      <point x="128.0" y="293.0" type="line" />
      <point x="128.0" y="0.0" type="line" />
    </contour>
  </outline>
</glyph>
<glyph name="964" format="2">
  <advance width="768" />
  <unicode hex="03C4" />
  <outline>
    <contour>
      <point x="0.0" y="768.0" type="line" />
      <point x="0.0" y="896.0" type="line" />
      <point x="640.0" y="896.0" type="line" />
      <point x="640.0" y="768.0" type="line" />
      <point x="384.0" y="768.0" type="line" />
      <point x="384.0" y="0.0" type="line" />
      <point x="256.0" y="0.0" type="line" />
      <point x="256.0" y="768.0" type="line" />
    </contour>
  </outline>
</glyph>
<glyph name="8221" format="2">
  <advance width="768" />
  <unicode hex="201D" />
  <outline>
    <contour>
      <point x="0.0" y="859.0" type="line" />
      <point x="91.0" y="768.0" type="line" />
      <point x="384.0" y="1061.0" type="line" />
      <point x="293.0" y="1152.0" type="line" />
    </contour>
    <contour>
      <point x="256.0" y="859.0" type="line" />
      <point x="347.0" y="768.0" type="line" />
      <point x="640.0" y="1061.0" type="line" />
      <point x="549.0" y="1152.0" type="line" />
    </contour>
  </outline>
</glyph>
<glyph name="8469" format="2">
  <advance width="768" />
  <unicode hex="2115" />
  <outline>
    <contour>
      <point x="0.0" y="0.0" type="line" />
      <point x="0.0" y="1152.0" type="line" />
      <point x="91.0" y="1152.0" type="line" />
      <point x="475.0" y="768.0" type="line" />
      <point x="512.0" y="768.0" type="line" />
      <point x="512.0" y="1152.0" type="line" />
      <point x="640.0" y="1152.0" type="line" />
      <point x="640.0" y="0.0" type="line" />
      <point x="512.0" y="0.0" type="line" />
      <point x="512.0" y="293.0" type="line" />
      <point x="165.0" y="640.0" type="line" />
      <point x="128.0" y="640.0" type="line" />
      <point x="128.0" y="0.0" type="line" />
    </contour>
  </outline>
</glyph>
<glyph name="uni211A" format="2">
  <advance width="768" />
  <unicode hex="211A" />
  <outline>
    <contour>
      <point x="0.0" y="165.0" type="line" />
      <point x="0.0" y="987.0" type="line" />
      <point x="165.0" y="1152.0" type="line" />
      <point x="475.0" y="1152.0" type="line" />
      <point x="640.0" y="987.0" type="line" />
      <point x="640.0" y="165.0" type="line" />
      <point x="539.0" y="64.0" type="line" />
      <point x="640.0" y="-37.0" type="line" />
      <point x="640.0" y="-256.0" type="line" />
      <point x="512.0" y="-256.0" type="line" />
      <point x="512.0" y="-91.0" type="line" />
      <point x="421.0" y="0.0" type="line" />
      <point x="165.0" y="0.0" type="line" />
    </contour>
    <contour>
      <point x="256.0" y="128.0" type="line" />
      <point x="421.0" y="128.0" type="line" />
      <point x="512.0" y="219.0" type="line" />
      <point x="512.0" y="933.0" type="line" />
      <point x="421.0" y="1024.0" type="line" />
      <point x="256.0" y="1024.0" type="line" />
    </contour>
  </outline>
</glyph>
<glyph name="8477" format="2">
  <advance width="768" />
  <unicode hex="211D" />
  <outline>
    <contour>
      <point x="0.0" y="0.0" type="line" />
      <point x="0.0" y="1152.0" type="line" />
      <point x="475.0" y="1152.0" type="line" />
      <point x="640.0" y="987.0" type="line" />
      <point x="640.0" y="677.0" type="line" />
      <point x="539.0" y="576.0" type="line" />
      <point x="640.0" y="475.0" type="line" />
      <point x="640.0" y="0.0" type="line" />
      <point x="512.0" y="0.0" type="line" />
      <point x="512.0" y="421.0" type="line" />
      <point x="421.0" y="512.0" type="line" />
      <point x="256.0" y="512.0" type="line" />
      <point x="256.0" y="0.0" type="line" />
    </contour>
    <contour>
      <point x="256.0" y="640.0" type="line" />
      <point x="421.0" y="640.0" type="line" />
      <point x="512.0" y="731.0" type="line" />
      <point x="512.0" y="933.0" type="line" />
      <point x="421.0" y="1024.0" type="line" />
      <point x="256.0" y="1024.0" type="line" />
    </contour>
  </outline>
</glyph>
<glyph name="8484" format="2">
  <advance width="768" />
  <unicode hex="2124" />
  <outline>
    <contour>
      <point x="0.0" y="0.0" type="line" />
      <point x="0.0" y="475.0" type="line" />
      <point x="512.0" y="987.0" type="line" />
      <point x="512.0" y="1024.0" type="line" />
      <point x="0.0" y="1024.0" type="line" />
      <point x="0.0" y="1152.0" type="line" />
      <point x="640.0" y="1152.0" type="line" />
      <point x="640.0" y="677.0" type="line" />
      <point x="128.0" y="165.0" type="line" />
      <point x="128.0" y="128.0" type="line" />
      <point x="640.0" y="128.0" type="line" />
      <point x="640.0" y="0.0" type="line" />
    </contour>
  </outline>
</glyph>
<glyph name="8592" format="2">
  <advance width="768" />
  <unicode hex="2190" />
  <outline>
    <contour>
      <point x="0.0" y="549.0" type="line" />
      <point x="256.0" y="293.0" type="line" />
      <point x="256.0" y="512.0" type="line" />
      <point x="640.0" y="512.0" type="line" />
      <point x="640.0" y="640.0" type="line" />
      <point x="256.0" y="640.0" type="line" />
      <point x="256.0" y="859.0" type="line" />
      <point x="0.0" y="603.0" type="line" />
    </contour>
  </outline>
</glyph>
<glyph name="universal" format="2">
  <advance width="1536" />
  <unicode hex="2200" />
  <outline>
    <contour>
      <point x="128.0" y="1152.0" type="line" />
      <point x="273.0" y="1152.0" type="line" />
      <point x="529.0" y="640.0" type="line" />
      <point x="879.0" y="640.0" type="line" />
      <point x="1135.0" y="1152.0" type="line" />
      <point x="1280.0" y="1152.0" type="line" />
      <point x="704.0" y="0.0" type="line" />
    </contour>
    <contour>
      <point x="593.0" y="512.0" type="line" />
      <point x="704.0" y="290.0" type="line" />
      <point x="815.0" y="512.0" type="line" />
    </contour>
  </outline>
</glyph>
<glyph name="8709" format="2">
  <advance width="1536" />
  <unicode hex="2205" />
  <outline>
    <contour>
      <point x="128.0" y="91.0" type="line" />
      <point x="293.0" y="256.0" type="line" />
      <point x="256.0" y="293.0" type="line" />
      <point x="256.0" y="859.0" type="line" />
      <point x="549.0" y="1152.0" type="line" />
      <point x="859.0" y="1152.0" type="line" />
      <point x="1024.0" y="987.0" type="line" />
      <point x="1189.0" y="1152.0" type="line" />
      <point x="1280.0" y="1061.0" type="line" />
      <point x="1115.0" y="896.0" type="line" />
      <point x="1152.0" y="859.0" type="line" />
      <point x="1152.0" y="293.0" type="line" />
      <point x="859.0" y="0.0" type="line" />
      <point x="549.0" y="0.0" type="line" />
      <point x="384.0" y="165.0" type="line" />
      <point x="219.0" y="0.0" type="line" />
    </contour>
    <contour>
      <point x="384.0" y="347.0" type="line" />
      <point x="933.0" y="896.0" type="line" />
      <point x="805.0" y="1024.0" type="line" />
      <point x="603.0" y="1024.0" type="line" />
      <point x="384.0" y="805.0" type="line" />
    </contour>
    <contour>
      <point x="475.0" y="256.0" type="line" />
      <point x="603.0" y="128.0" type="line" />
      <point x="805.0" y="128.0" type="line" />
      <point x="1024.0" y="347.0" type="line" />
      <point x="1024.0" y="805.0" type="line" />
    </contour>
  </outline>
</glyph>
<glyph name="8712" format="2">
  <advance width="768" />
  <unicode hex="2208" />
  <outline>
    <contour>
      <point x="0.0" y="421.0" type="line" />
      <point x="0.0" y="731.0" type="line" />
      <point x="293.0" y="1024.0" type="line" />
      <point x="640.0" y="1024.0" type="line" />
      <point x="640.0" y="896.0" type="line" />
      <point x="347.0" y="896.0" type="line" />
      <point x="128.0" y="677.0" type="line" />
      <point x="128.0" y="640.0" type="line" />
      <point x="512.0" y="640.0" type="line" />
      <point x="512.0" y="512.0" type="line" />
      <point x="128.0" y="512.0" type="line" />
      <point x="128.0" y="512.0" type="line" />
      <point x="128.0" y="475.0" type="line" />
      <point x="347.0" y="256.0" type="line" />
      <point x="640.0" y="256.0" type="line" />
      <point x="640.0" y="128.0" type="line" />
      <point x="293.0" y="128.0" type="line" />
    </contour>
  </outline>
</glyph>
<glyph name="8728" format="2">
  <advance width="768" />
  <unicode hex="2218" />
  <outline>
    <contour>
      <point x="128.0" y="549.0" type="line" />
      <point x="128.0" y="603.0" type="line" />
      <point x="293.0" y="768.0" type="line" />
      <point x="347.0" y="768.0" type="line" />
      <point x="512.0" y="603.0" type="line" />
      <point x="512.0" y="549.0" type="line" />
      <point x="347.0" y="384.0" type="line" />
      <point x="293.0" y="384.0" type="line" />
    </contour>
    <contour>
      <point x="256.0" y="549.0" type="line" />
      <point x="293.0" y="512.0" type="line" />
      <point x="347.0" y="512.0" type="line" />
      <point x="384.0" y="549.0" type="line" />
      <point x="384.0" y="603.0" type="line" />
      <point x="347.0" y="640.0" type="line" />
      <point x="293.0" y="640.0" type="line" />
      <point x="256.0" y="603.0" type="line" />
    </contour>
  </outline>
</glyph>
<glyph name="8734" format="2">
  <advance width="768" />
  <unicode hex="221E" />
  <outline>
    <contour>
      <point x="0.0" y="549.0" type="line" />
      <point x="0.0" y="603.0" type="line" />
      <point x="165.0" y="768.0" type="line" />
      <point x="219.0" y="768.0" type="line" />
      <point x="320.0" y="667.0" type="line" />
      <point x="421.0" y="768.0" type="line" />
      <point x="475.0" y="768.0" type="line" />
      <point x="640.0" y="603.0" type="line" />
      <point x="640.0" y="549.0" type="line" />
      <point x="475.0" y="384.0" type="line" />
      <point x="421.0" y="384.0" type="line" />
      <point x="320.0" y="485.0" type="line" />
      <point x="219.0" y="384.0" type="line" />
      <point x="165.0" y="384.0" type="line" />
    </contour>
    <contour>
      <point x="128.0" y="549.0" type="line" />
      <point x="165.0" y="512.0" type="line" />
      <point x="219.0" y="512.0" type="line" />
      <point x="256.0" y="549.0" type="line" />
      <point x="256.0" y="603.0" type="line" />
      <point x="219.0" y="640.0" type="line" />
      <point x="165.0" y="640.0" type="line" />
      <point x="128.0" y="603.0" type="line" />
    </contour>
    <contour>
      <point x="384.0" y="549.0" type="line" />
      <point x="421.0" y="512.0" type="line" />
      <point x="475.0" y="512.0" type="line" />
      <point x="512.0" y="549.0" type="line" />
      <point x="512.0" y="603.0" type="line" />
      <point x="475.0" y="640.0" type="line" />
      <point x="421.0" y="640.0" type="line" />
      <point x="384.0" y="603.0" type="line" />
    </contour>
  </outline>
</glyph>
<glyph name="8743" format="2">
  <advance width="768" />
  <unicode hex="2227" />
  <outline>
    <contour>
      <point x="0.0" y="475.0" type="line" />
      <point x="320.0" y="795.0" type="line" />
      <point x="640.0" y="475.0" type="line" />
      <point x="549.0" y="384.0" type="line" />
      <point x="320.0" y="613.0" type="line" />
      <point x="91.0" y="384.0" type="line" />
    </contour>
  </outline>
</glyph>
<glyph name="8744" format="2">
  <advance width="768" />
  <unicode hex="2228" />
  <outline>
    <contour>
      <point x="0.0" y="677.0" type="line" />
      <point x="320.0" y="357.0" type="line" />
      <point x="640.0" y="677.0" type="line" />
      <point x="549.0" y="768.0" type="line" />
      <point x="320.0" y="539.0" type="line" />
      <point x="91.0" y="768.0" type="line" />
    </contour>
  </outline>
</glyph>
<glyph name="8801" format="2">
  <advance width="768" />
  <unicode hex="2261" />
  <outline>
    <contour>
      <point x="0.0" y="256.0" type="line" />
      <point x="0.0" y="384.0" type="line" />
      <point x="640.0" y="384.0" type="line" />
      <point x="640.0" y="256.0" type="line" />
    </contour>
    <contour>
      <point x="0.0" y="512.0" type="line" />
      <point x="0.0" y="640.0" type="line" />
      <point x="640.0" y="640.0" type="line" />
      <point x="640.0" y="512.0" type="line" />
    </contour>
    <contour>
      <point x="0.0" y="768.0" type="line" />
      <point x="0.0" y="896.0" type="line" />
      <point x="640.0" y="896.0" type="line" />
      <point x="640.0" y="768.0" type="line" />
    </contour>
  </outline>
</glyph>
<glyph name="10217" format="2">
  <advance width="768" />
  <unicode hex="27E9" />
  <outline>
    <contour>
      <point x="0.0" y="-165.0" type="line" />
      <point x="91.0" y="-256.0" type="line" />
      <point x="640.0" y="293.0" type="line" />
      <point x="640.0" y="603.0" type="line" />
      <point x="91.0" y="1152.0" type="line" />
      <point x="0.0" y="1061.0" type="line" />
      <point x="512.0" y="549.0" type="line" />
      <point x="512.0" y="347.0" type="line" />
    </contour>
  </outline>
</glyph>
